# xmcd
#
# Track frame offsets:
#	150
#	23870
#	34637
#	46158
#	75352
#	87147
#	105514
#	122326
#	143850
#	163813
#	178810
#	194998
#
# Disc length: 2848 seconds
#
# Revision: 0
# Processed by: cddbd v1.5.2PL0 Copyright (c) Steve Scherf et al.
# Submitted via: dBpowerAMP V4.0
#
DISCID=950b1e0c
DTITLE=GildoDeFreitas - Lembranças
DYEAR=1900
DGENRE=Country
TTITLE0=FigueiraAmiga
TTITLE1=TrançaDeChina
TTITLE2=JáDormíNoCimitério
TTITLE3=EuReconheçoQueSouUmGrosso
TTITLE4=SaudadeDosPagos
TTITLE5=LembrançaDoPassado
TTITLE6=SemVocêNãoSouFeliz
TTITLE7=NósTodosSomosIguais
TTITLE8=RespostaDoFacão 3 Listas
TTITLE9=VenhaComigoMaqriquinha
TTITLE10=FacaPrateada
TTITLE11=VidaDeCamponês
EXTD=
EXTT0=
EXTT1=
EXTT2=
EXTT3=
EXTT4=
EXTT5=
EXTT6=
EXTT7=
EXTT8=
EXTT9=
EXTT10=
EXTT11=
PLAYORDER=
